<svg width="54" height="54" viewBox="0 0 54 54" fill="none" xmlns="http://www.w3.org/2000/svg">
<path d="M27.6725 20.7925C27.449 21.1926 27.2499 21.6059 27.0762 22.03C25.3693 21.76 23.6306 21.76 21.9237 22.03C21.75 21.6059 21.5509 21.1926 21.3275 20.7925C19.7196 21.0672 18.1565 21.5592 16.6812 22.255C14.043 26.0623 12.8466 30.6846 13.3062 35.2937C15.0255 36.5862 16.9551 37.5719 19.01 38.2075C19.4779 37.5894 19.8955 36.9348 20.2587 36.25C19.5883 36.0028 18.9439 35.69 18.335 35.3162C18.502 35.2051 18.66 35.081 18.8075 34.945C20.5832 35.8003 22.5289 36.2445 24.5 36.2445C26.471 36.2445 28.4167 35.8003 30.1925 34.945C30.35 35.08 30.5075 35.2037 30.665 35.3162C30.0527 35.6871 29.409 36.0033 28.7412 36.2612C29.0894 36.9616 29.4958 37.6314 29.9562 38.2637C32.0085 37.6304 33.9348 36.6444 35.6487 35.35C36.1194 30.74 34.922 26.1139 32.2737 22.3112C30.815 21.6011 29.2673 21.0902 27.6725 20.7925ZM20.765 32.6612C20.202 32.6208 19.6766 32.3639 19.299 31.9443C18.9214 31.5248 18.7211 30.9753 18.74 30.4112C18.7182 29.8464 18.9176 29.2953 19.2957 28.8752C19.6739 28.455 20.201 28.1989 20.765 28.1612C21.329 28.1989 21.8561 28.455 22.2342 28.8752C22.6123 29.2953 22.8117 29.8464 22.79 30.4112C22.8117 30.9761 22.6123 31.5271 22.2342 31.9473C21.8561 32.3674 21.329 32.6236 20.765 32.6612ZM28.235 32.6612C27.672 32.6208 27.1466 32.3639 26.769 31.9443C26.3914 31.5248 26.1911 30.9753 26.21 30.4112C26.1882 29.8464 26.3876 29.2953 26.7657 28.8752C27.1439 28.455 27.671 28.1989 28.235 28.1612C28.8 28.1961 29.3288 28.4514 29.7075 28.8722C30.0863 29.293 30.2846 29.8456 30.26 30.4112C30.2846 30.9768 30.0863 31.5295 29.7075 31.9503C29.3288 32.3711 28.8 32.6264 28.235 32.6612Z" fill="#FFAE01"/>
<rect x="2.5" y="6.5" width="45" height="45" rx="22.5" fill="#DE1CF6" fill-opacity="0.05" stroke="url(#paint0_linear_101_73)"/>
<g filter="url(#filter0_f_101_73)">
<rect x="4.5" y="4.5" width="45" height="45" rx="22.5" stroke="url(#paint1_linear_101_73)"/>
</g>
<defs>
<filter id="filter0_f_101_73" x="0" y="0" width="54" height="54" filterUnits="userSpaceOnUse" color-interpolation-filters="sRGB">
<feFlood flood-opacity="0" result="BackgroundImageFix"/>
<feBlend mode="normal" in="SourceGraphic" in2="BackgroundImageFix" result="shape"/>
<feGaussianBlur stdDeviation="2" result="effect1_foregroundBlur_101_73"/>
</filter>
<linearGradient id="paint0_linear_101_73" x1="0.218854" y1="29.115" x2="50.1058" y2="42.7052" gradientUnits="userSpaceOnUse">
<stop stop-color="#FFAE01"/>
<stop offset="0.346026" stop-color="#FFAE01"/>
<stop offset="1" stop-color="#FFAE01"/>
</linearGradient>
<linearGradient id="paint1_linear_101_73" x1="2.21885" y1="27.115" x2="52.1058" y2="40.7052" gradientUnits="userSpaceOnUse">
<stop stop-color="#FFAE01"/>
<stop offset="0.346026" stop-color="#FFAE01"/>
<stop offset="1" stop-color="#FFAE01"/>
</linearGradient>
</defs>
</svg>
